<svg transform="scale(1)" id="Vyw5brE4ei" data-name="0722_Learn Programming" xmlns="http://www.w3.org/2000/svg" viewBox="0 0 500 500" class="pbimage_pbimage__wrapper__image__0LEis false"><title>Learn Programming</title><defs><style> .cls-1, .cls-2{fill:#221f20;} .cls-1, .cls-2, .cls-3, .cls-4, .cls-5{stroke-width:0px;} .cls-1, .cls-4{fill-rule:evenodd;} .cls-3, .cls-4{fill:#68e1fd;} .cls-5{fill:#fff;}
 .cls-3, .cls-4{fill:#68E1FD;}
 .cls-1, .cls-2{fill:#221F20;}
 .cls-5{fill:#FFFFFF;}</style></defs><g id="Screens"><g><g><g><rect class="cls-5" x="87.38" y="70.64" width="125.2" height="74.24"></rect><path class="cls-2" d="M212.58,145.63h-125.2c-.41,0-.75-.34-.75-.75v-74.24c0-.41.34-.75.75-.75h125.2c.41,0,.75.34.75.75v74.24c0,.41-.34.75-.75.75ZM88.13,144.13h123.7v-72.74h-123.7v72.74Z"></path></g><g><rect class="cls-5" x="155.56" y="85.99" width="46.28" height="46.28"></rect><path class="cls-2" d="M201.83,133.01h-46.28c-.41,0-.75-.34-.75-.75v-46.28c0-.41.34-.75.75-.75h46.28c.41,0,.75.34.75.75v46.28c0,.41-.34.75-.75.75ZM156.31,131.51h44.78v-44.78h-44.78v44.78Z"></path></g><g><rect class="cls-5" x="87.38" y="70.64" width="125.2" height="8.14"></rect><path class="cls-2" d="M212.58,79.53h-125.2c-.41,0-.75-.34-.75-.75v-8.14c0-.41.34-.75.75-.75h125.2c.41,0,.75.34.75.75v8.14c0,.41-.34.75-.75.75ZM88.13,78.03h123.7v-6.64h-123.7v6.64Z"></path></g></g><g><path class="cls-2" d="M106.18,122.07c-.23,0-.45-.1-.6-.3l-10.17-13.56c-.2-.27-.2-.63,0-.9l10.17-13.56c.25-.33.72-.4,1.05-.15.33.25.4.72.15,1.05l-9.83,13.11,9.83,13.11c.25.33.18.8-.15,1.05-.13.1-.29.15-.45.15Z"></path><path class="cls-2" d="M134.81,122.07c-.16,0-.31-.05-.45-.15-.33-.25-.4-.72-.15-1.05l9.83-13.11-9.83-13.11c-.25-.33-.18-.8.15-1.05.33-.25.8-.18,1.05.15l10.17,13.56c.2.27.2.63,0,.9l-10.17,13.56c-.15.2-.37.3-.6.3Z"></path><path class="cls-2" d="M113.99,122.07c-.12,0-.24-.03-.35-.08-.37-.19-.51-.64-.32-1.01l14.14-27.12c.19-.37.64-.51,1.01-.32.37.19.51.64.32,1.01l-14.14,27.12c-.13.26-.4.4-.67.4Z"></path></g><path class="cls-2" d="M171.53,92.75h-10.39c-.41,0-.75-.34-.75-.75s.34-.75.75-.75h10.39c.41,0,.75.34.75.75s-.34.75-.75.75Z"></path><path class="cls-2" d="M196.38,98.31h-35.24c-.41,0-.75-.34-.75-.75s.34-.75.75-.75h35.24c.41,0,.75.34.75.75s-.34.75-.75.75Z"></path><path class="cls-2" d="M196.38,104.57h-35.24c-.41,0-.75-.34-.75-.75s.34-.75.75-.75h35.24c.41,0,.75.34.75.75s-.34.75-.75.75Z"></path><path class="cls-2" d="M196.38,110.84h-35.24c-.41,0-.75-.34-.75-.75s.34-.75.75-.75h35.24c.41,0,.75.34.75.75s-.34.75-.75.75Z"></path><path class="cls-2" d="M196.38,117.11h-35.24c-.41,0-.75-.34-.75-.75s.34-.75.75-.75h35.24c.41,0,.75.34.75.75s-.34.75-.75.75Z"></path><path class="cls-2" d="M196.38,123.37h-35.24c-.41,0-.75-.34-.75-.75s.34-.75.75-.75h35.24c.41,0,.75.34.75.75s-.34.75-.75.75Z"></path></g><g><g><rect class="cls-5" x="174.97" y="110.09" width="135.2" height="74.24"></rect><path class="cls-2" d="M310.17,185.08h-135.2c-.41,0-.75-.34-.75-.75v-74.24c0-.41.34-.75.75-.75h135.2c.41,0,.75.34.75.75v74.24c0,.41-.34.75-.75.75ZM175.72,183.58h133.7v-72.74h-133.7v72.74Z"></path></g><g><rect class="cls-5" x="174.97" y="110.09" width="135.2" height="8.14"></rect><path class="cls-2" d="M310.17,118.98h-135.2c-.41,0-.75-.34-.75-.75v-8.14c0-.41.34-.75.75-.75h135.2c.41,0,.75.34.75.75v8.14c0,.41-.34.75-.75.75ZM175.72,117.48h133.7v-6.64h-133.7v6.64Z"></path></g><g><path class="cls-4" d="M197.02,171.89h21.69c.6,0,1.1-.49,1.1-1.1h0c0-.6-.49-1.1-1.1-1.1h-21.69c-.6,0-1.1.49-1.1,1.1h0c0,.6.49,1.1,1.1,1.1"></path><path class="cls-1" d="M197.09,167.11h17.82c.6,0,1.1-.49,1.1-1.1h0c0-.6-.49-1.1-1.1-1.1h-17.82c-.6,0-1.1.49-1.1,1.1h0c0,.6.49,1.1,1.1,1.1"></path><path class="cls-4" d="M197.09,162.33h74.22c.6,0,1.1-.49,1.1-1.1h0c0-.6-.49-1.1-1.1-1.1h-74.22c-.6,0-1.1.49-1.1,1.1h0c0,.6.49,1.1,1.1,1.1"></path><path class="cls-4" d="M225.19,171.89h34.74c.6,0,1.1-.49,1.1-1.1h0c0-.6-.49-1.1-1.1-1.1h-34.74c-.6,0-1.1.49-1.1,1.1h0c0,.6.49,1.1,1.1,1.1"></path><path class="cls-4" d="M219.89,167.11h62.45c.6,0,1.1-.49,1.1-1.1h0c0-.6-.49-1.1-1.1-1.1h-62.45c-.6,0-1.1.49-1.1,1.1h0c0,.6.49,1.1,1.1,1.1"></path><path class="cls-1" d="M288.43,167.11h11.39c.6,0,1.1-.49,1.1-1.1h0c0-.6-.49-1.1-1.1-1.1h-11.39c-.6,0-1.1.49-1.1,1.1h0c0,.6.49,1.1,1.1,1.1"></path><path class="cls-4" d="M190.7,157.51h14.52c.6,0,1.1-.49,1.1-1.1h0c0-.6-.49-1.1-1.1-1.1h-14.52c-.6,0-1.1.49-1.1,1.1h0c0,.6.49,1.1,1.1,1.1"></path><path class="cls-4" d="M197.37,151.12h14.52c.6,0,1.1-.49,1.1-1.1h0c0-.6-.49-1.1-1.1-1.1h-14.52c-.6,0-1.1.49-1.1,1.1h0c0,.6.49,1.1,1.1,1.1"></path><path class="cls-4" d="M197.02,146.33h21.69c.6,0,1.1-.49,1.1-1.1h0c0-.6-.49-1.1-1.1-1.1h-21.69c-.6,0-1.1.49-1.1,1.1h0c0,.6.49,1.1,1.1,1.1"></path><path class="cls-4" d="M197.09,141.55h17.82c.6,0,1.1-.49,1.1-1.1h0c0-.6-.49-1.1-1.1-1.1h-17.82c-.6,0-1.1.49-1.1,1.1h0c0,.6.49,1.1,1.1,1.1"></path><path class="cls-4" d="M197.09,136.77h23.32c.6,0,1.1-.49,1.1-1.1h0c0-.6-.49-1.1-1.1-1.1h-23.32c-.6,0-1.1.49-1.1,1.1h0c0,.6.49,1.1,1.1,1.1"></path><path class="cls-1" d="M225.19,146.33h14.24c.6,0,1.1-.49,1.1-1.1h0c0-.6-.49-1.1-1.1-1.1h-14.24c-.6,0-1.1.49-1.1,1.1h0c0,.6.49,1.1,1.1,1.1"></path><path class="cls-4" d="M219.89,141.55h41.95c.6,0,1.1-.49,1.1-1.1h0c0-.6-.49-1.1-1.1-1.1h-41.95c-.6,0-1.1.49-1.1,1.1h0c0,.6.49,1.1,1.1,1.1"></path><path class="cls-1" d="M267.94,141.55h11.39c.6,0,1.1-.49,1.1-1.1h0c0-.6-.49-1.1-1.1-1.1h-11.39c-.6,0-1.1.49-1.1,1.1h0c0,.6.49,1.1,1.1,1.1"></path><path class="cls-4" d="M225.21,136.77h12.64c.6,0,1.1-.49,1.1-1.1h0c0-.6-.49-1.1-1.1-1.1h-12.64c-.6,0-1.1.49-1.1,1.1h0c0,.6.49,1.1,1.1,1.1"></path><path class="cls-4" d="M242.01,136.77h12.64c.6,0,1.1-.49,1.1-1.1h0c0-.6-.49-1.1-1.1-1.1h-12.64c-.6,0-1.1.49-1.1,1.1h0c0,.6.49,1.1,1.1,1.1"></path><path class="cls-1" d="M190.7,129.73h14.52c.6,0,1.1-.49,1.1-1.1h0c0-.6-.49-1.1-1.1-1.1h-14.52c-.6,0-1.1.49-1.1,1.1h0c0,.6.49,1.1,1.1,1.1"></path></g></g><g><g><g><rect class="cls-5" x="272.57" y="149.54" width="135.2" height="74.24"></rect><path class="cls-2" d="M407.76,224.53h-135.2c-.41,0-.75-.34-.75-.75v-74.24c0-.41.34-.75.75-.75h135.2c.41,0,.75.34.75.75v74.24c0,.41-.34.75-.75.75ZM273.32,223.03h133.7v-72.74h-133.7v72.74Z"></path></g><g><rect class="cls-5" x="272.57" y="149.54" width="135.2" height="8.14"></rect><path class="cls-2" d="M407.76,158.43h-135.2c-.41,0-.75-.34-.75-.75v-8.14c0-.41.34-.75.75-.75h135.2c.41,0,.75.34.75.75v8.14c0,.41-.34.75-.75.75ZM273.32,156.93h133.7v-6.64h-133.7v6.64Z"></path></g></g><g><path class="cls-4" d="M291.93,210.31h21.69c.6,0,1.1-.49,1.1-1.1h0c0-.6-.49-1.1-1.1-1.1h-21.69c-.6,0-1.1.49-1.1,1.1h0c0,.6.49,1.1,1.1,1.1"></path><path class="cls-1" d="M292,205.52h17.82c.6,0,1.1-.49,1.1-1.1h0c0-.6-.49-1.1-1.1-1.1h-17.82c-.6,0-1.1.49-1.1,1.1h0c0,.6.49,1.1,1.1,1.1"></path><path class="cls-4" d="M292,200.74h74.22c.6,0,1.1-.49,1.1-1.1h0c0-.6-.49-1.1-1.1-1.1h-74.22c-.6,0-1.1.49-1.1,1.1h0c0,.6.49,1.1,1.1,1.1"></path><path class="cls-4" d="M320.1,210.31h34.74c.6,0,1.1-.49,1.1-1.1h0c0-.6-.49-1.1-1.1-1.1h-34.74c-.6,0-1.1.49-1.1,1.1h0c0,.6.49,1.1,1.1,1.1"></path><path class="cls-4" d="M314.79,205.52h62.45c.6,0,1.1-.49,1.1-1.1h0c0-.6-.49-1.1-1.1-1.1h-62.45c-.6,0-1.1.49-1.1,1.1h0c0,.6.49,1.1,1.1,1.1"></path><path class="cls-1" d="M383.34,205.52h11.39c.6,0,1.1-.49,1.1-1.1h0c0-.6-.49-1.1-1.1-1.1h-11.39c-.6,0-1.1.49-1.1,1.1h0c0,.6.49,1.1,1.1,1.1"></path><path class="cls-4" d="M285.61,195.92h14.52c.6,0,1.1-.49,1.1-1.1h0c0-.6-.49-1.1-1.1-1.1h-14.52c-.6,0-1.1.49-1.1,1.1h0c0,.6.49,1.1,1.1,1.1"></path><path class="cls-4" d="M292.28,189.53h14.52c.6,0,1.1-.49,1.1-1.1h0c0-.6-.49-1.1-1.1-1.1h-14.52c-.6,0-1.1.49-1.1,1.1h0c0,.6.49,1.1,1.1,1.1"></path><path class="cls-4" d="M291.93,184.75h21.69c.6,0,1.1-.49,1.1-1.1h0c0-.6-.49-1.1-1.1-1.1h-21.69c-.6,0-1.1.49-1.1,1.1h0c0,.6.49,1.1,1.1,1.1"></path><path class="cls-4" d="M292,179.96h17.82c.6,0,1.1-.49,1.1-1.1h0c0-.6-.49-1.1-1.1-1.1h-17.82c-.6,0-1.1.49-1.1,1.1h0c0,.6.49,1.1,1.1,1.1"></path><path class="cls-4" d="M292,175.18h23.32c.6,0,1.1-.49,1.1-1.1h0c0-.6-.49-1.1-1.1-1.1h-23.32c-.6,0-1.1.49-1.1,1.1h0c0,.6.49,1.1,1.1,1.1"></path><path class="cls-1" d="M320.1,184.75h14.24c.6,0,1.1-.49,1.1-1.1h0c0-.6-.49-1.1-1.1-1.1h-14.24c-.6,0-1.1.49-1.1,1.1h0c0,.6.49,1.1,1.1,1.1"></path><path class="cls-4" d="M314.79,179.96h41.95c.6,0,1.1-.49,1.1-1.1h0c0-.6-.49-1.1-1.1-1.1h-41.95c-.6,0-1.1.49-1.1,1.1h0c0,.6.49,1.1,1.1,1.1"></path><path class="cls-1" d="M362.84,179.96h11.39c.6,0,1.1-.49,1.1-1.1h0c0-.6-.49-1.1-1.1-1.1h-11.39c-.6,0-1.1.49-1.1,1.1h0c0,.6.49,1.1,1.1,1.1"></path><path class="cls-4" d="M320.11,175.18h12.64c.6,0,1.1-.49,1.1-1.1h0c0-.6-.49-1.1-1.1-1.1h-12.64c-.6,0-1.1.49-1.1,1.1h0c0,.6.49,1.1,1.1,1.1"></path><path class="cls-4" d="M336.92,175.18h12.64c.6,0,1.1-.49,1.1-1.1h0c0-.6-.49-1.1-1.1-1.1h-12.64c-.6,0-1.1.49-1.1,1.1h0c0,.6.49,1.1,1.1,1.1"></path><path class="cls-1" d="M285.61,168.14h14.52c.6,0,1.1-.49,1.1-1.1h0c0-.6-.49-1.1-1.1-1.1h-14.52c-.6,0-1.1.49-1.1,1.1h0c0,.6.49,1.1,1.1,1.1"></path></g></g></g><g id="Flook"><path class="cls-2" d="M463.48,407.67H36.52c-.41,0-.75-.34-.75-.75s.34-.75.75-.75h426.97c.41,0,.75.34.75.75s-.34.75-.75.75Z"></path></g><g id="Books"><g><g><path class="cls-5" d="M315.1,383.62v4.99c0,13.3,4.53,26.02,4.53,26.02h3.46v4.65h-182.92c-.72,0-1.36-.46-1.59-1.15-1.22-3.76-4.89-16.2-4.89-29.11v-5.8c0-12.91,3.67-25.35,4.89-29.11.22-.69.86-1.15,1.59-1.15h182.92v4.65h-3.46s-4.53,12.73-4.53,26.02Z"></path><path class="cls-2" d="M323.09,420.03h-182.92c-1.05,0-1.98-.67-2.3-1.67-1.16-3.58-4.92-16.27-4.92-29.34v-5.8c0-13.08,3.77-25.77,4.92-29.35.32-1,1.25-1.67,2.3-1.67h182.92c.41,0,.75.34.75.75v4.65c0,.41-.34.75-.75.75h-2.92c-.82,2.47-4.32,13.73-4.32,25.27v4.99c0,11.55,3.5,22.8,4.32,25.27h2.92c.41,0,.75.34.75.75v4.65c0,.41-.34.75-.75.75ZM140.17,353.7c-.4,0-.75.25-.87.63-1.14,3.52-4.85,16.02-4.85,28.88v5.8c0,12.85,3.71,25.35,4.85,28.88.12.38.47.63.87.63h182.17v-3.15h-2.71c-.32,0-.6-.2-.71-.5-.04-.13-4.57-13-4.57-26.27v-4.99c0-13.27,4.53-26.15,4.57-26.27.11-.3.39-.5.71-.5h2.71v-3.15h-182.17Z"></path></g><g><path class="cls-5" d="M421.06,383.62v4.99c0,13.3,4.53,26.02,4.53,26.02h3.46v4.65h-130.68c-.38,0-.71-.24-.83-.59-.97-2.9-5.07-16.02-5.07-29.67v-5.8c0-13.65,4.1-26.77,5.07-29.67.12-.36.45-.59.83-.59h130.68v4.65h-3.46s-4.53,12.73-4.53,26.02Z"></path><path class="cls-2" d="M429.05,420.03h-130.68c-.7,0-1.32-.44-1.54-1.11-.85-2.56-5.11-16.04-5.11-29.9v-5.8c0-13.87,4.26-27.35,5.11-29.91.22-.66.84-1.11,1.54-1.11h130.68c.41,0,.75.34.75.75v4.65c0,.41-.34.75-.75.75h-2.92c-.82,2.47-4.32,13.73-4.32,25.27v4.99c0,11.55,3.5,22.8,4.32,25.27h2.92c.41,0,.75.34.75.75v4.65c0,.41-.34.75-.75.75ZM298.36,353.7c-.05,0-.1.03-.12.08-.84,2.52-5.03,15.79-5.03,29.44v5.8c0,13.63,4.19,26.91,5.03,29.43.02.05.06.08.12.08h129.93v-3.15h-2.71c-.32,0-.6-.2-.71-.5-.04-.13-4.57-13-4.57-26.27v-4.99c0-13.27,4.53-26.15,4.57-26.27.11-.3.39-.5.71-.5h2.71v-3.15h-129.93Z"></path></g><g><path class="cls-5" d="M421.06,388.61c0,13.3,4.53,26.02,4.53,26.02h-121.13s-4.53-12.73-4.53-26.02v-4.99c0-13.3,4.53-26.02,4.53-26.02h121.13s-4.53,12.73-4.53,26.02v4.99Z"></path><path class="cls-2" d="M425.59,415.38h-121.13c-.32,0-.6-.2-.71-.5-.04-.13-4.57-13-4.57-26.27v-4.99c0-13.27,4.53-26.15,4.57-26.27.11-.3.39-.5.71-.5h121.13c.24,0,.47.12.61.32.14.2.18.45.09.68-.04.13-4.48,12.76-4.48,25.77v4.99c0,13.01,4.44,25.65,4.48,25.77.08.23.05.48-.09.68-.14.2-.37.32-.61.32ZM304.99,413.88h119.55c-1.05-3.28-4.24-14.14-4.24-25.27v-4.99c0-11.14,3.19-21.99,4.24-25.27h-119.55c-.82,2.47-4.32,13.73-4.32,25.27v4.99c0,11.55,3.5,22.8,4.32,25.27Z"></path></g><g><path class="cls-3" d="M270.99,419.27h-101.7c-.37,0-.71-.23-.83-.59-.96-2.9-5.07-16.02-5.07-29.66v-5.81c0-13.65,4.1-26.77,5.07-29.67.12-.36.46-.59.83-.59h101.7c-.37,0-.71.23-.83.59-.96,2.9-5.07,16.02-5.07,29.67v5.81c0,13.64,4.1,26.76,5.07,29.66.12.36.46.59.83.59Z"></path><path class="cls-2" d="M270.99,420.02h-101.7c-.7,0-1.32-.44-1.54-1.1-1.2-3.61-5.11-16.42-5.11-29.91v-5.81c0-13.49,3.91-26.3,5.1-29.91.23-.66.85-1.1,1.55-1.1h101.7c.41,0,.75.34.75.75s-.34.75-.75.75c-.06,0-.11.03-.12.08-.84,2.52-5.03,15.81-5.03,29.43v5.81c0,13.61,4.19,26.9,5.03,29.43.01.04.07.08.12.08.41,0,.75.34.75.75s-.34.75-.75.75ZM169.28,353.7c-.06,0-.11.03-.12.08-1.18,3.54-5.02,16.16-5.02,29.43v5.81c0,13.6,4.19,26.9,5.03,29.43.01.04.06.08.12.08h100.03c-1.33-4.08-4.97-16.47-4.97-29.5v-5.81c0-13.05,3.65-25.44,4.97-29.51h-100.03Z"></path></g><path class="cls-2" d="M413.65,366.28h-96.79c-.41,0-.75-.34-.75-.75s.34-.75.75-.75h96.79c.41,0,.75.34.75.75s-.34.75-.75.75Z"></path><path class="cls-2" d="M421.91,373.74h-98.81c-.41,0-.75-.34-.75-.75s.34-.75.75-.75h98.81c.41,0,.75.34.75.75s-.34.75-.75.75Z"></path><path class="cls-2" d="M409.15,382.56h-96.79c-.41,0-.75-.34-.75-.75s.34-.75.75-.75h96.79c.41,0,.75.34.75.75s-.34.75-.75.75Z"></path><path class="cls-2" d="M419.88,392.74h-96.79c-.41,0-.75-.34-.75-.75s.34-.75.75-.75h96.79c.41,0,.75.34.75.75s-.34.75-.75.75Z"></path></g><g><g><path class="cls-5" d="M308.87,317.29v4.99c0,13.3,4.53,26.02,4.53,26.02h3.46v4.65h-182.92c-.72,0-1.36-.46-1.59-1.15-1.22-3.76-4.89-16.2-4.89-29.11v-5.8c0-12.91,3.67-25.35,4.89-29.11.22-.69.86-1.15,1.59-1.15h182.92v4.65h-3.46s-4.53,12.73-4.53,26.02Z"></path><path class="cls-2" d="M316.86,353.7h-182.92c-1.05,0-1.98-.67-2.3-1.67-1.16-3.58-4.92-16.26-4.92-29.34v-5.8c0-13.08,3.77-25.77,4.92-29.35.32-1,1.25-1.67,2.3-1.67h182.92c.41,0,.75.34.75.75v4.65c0,.41-.34.75-.75.75h-2.92c-.82,2.47-4.32,13.73-4.32,25.27v4.99c0,11.55,3.5,22.8,4.32,25.27h2.92c.41,0,.75.34.75.75v4.65c0,.41-.34.75-.75.75ZM133.93,287.37c-.4,0-.75.25-.87.63-1.14,3.53-4.85,16.03-4.85,28.88v5.8c0,12.85,3.71,25.35,4.85,28.88.12.38.47.63.87.63h182.17v-3.15h-2.71c-.32,0-.6-.2-.71-.5-.04-.13-4.57-13-4.57-26.27v-4.99c0-13.27,4.53-26.15,4.57-26.27.11-.3.39-.5.71-.5h2.71v-3.15h-182.17Z"></path></g><g><path class="cls-5" d="M414.82,317.29v4.99c0,13.3,4.53,26.02,4.53,26.02h3.46v4.65h-130.68c-.38,0-.71-.24-.83-.59-.97-2.9-5.07-16.02-5.07-29.67v-5.8c0-13.65,4.1-26.77,5.07-29.67.12-.36.45-.59.83-.59h130.68v4.65h-3.46s-4.53,12.73-4.53,26.02Z"></path><path class="cls-2" d="M422.81,353.7h-130.68c-.7,0-1.32-.44-1.54-1.11-.85-2.56-5.11-16.04-5.11-29.9v-5.8c0-13.87,4.26-27.35,5.11-29.91.22-.66.84-1.11,1.54-1.11h130.68c.41,0,.75.34.75.75v4.65c0,.41-.34.75-.75.75h-2.92c-.82,2.47-4.32,13.73-4.32,25.27v4.99c0,11.55,3.5,22.8,4.32,25.27h2.92c.41,0,.75.34.75.75v4.65c0,.41-.34.75-.75.75ZM292.13,287.37c-.05,0-.1.03-.11.08-.84,2.52-5.03,15.8-5.03,29.44v5.8c0,13.63,4.19,26.91,5.03,29.43.02.05.06.08.11.08h129.93v-3.15h-2.71c-.32,0-.6-.2-.71-.5-.04-.13-4.57-13-4.57-26.27v-4.99c0-13.27,4.53-26.15,4.57-26.27.11-.3.39-.5.71-.5h2.71v-3.15h-129.93Z"></path></g><g><path class="cls-3" d="M272.57,352.95h-21.85c-.37,0-.71-.23-.83-.59-.96-2.9-5.07-16.02-5.07-29.66v-5.81c0-13.65,4.1-26.77,5.07-29.67.12-.36.46-.59.83-.59h21.85c-.37,0-.71.23-.83.59-.96,2.9-5.07,16.02-5.07,29.67v5.81c0,13.64,4.1,26.76,5.07,29.66.12.36.46.59.83.59Z"></path><path class="cls-2" d="M272.57,353.7h-21.85c-.7,0-1.32-.44-1.54-1.1-1.2-3.61-5.11-16.41-5.11-29.91v-5.81c0-13.5,3.91-26.31,5.1-29.91.23-.66.85-1.1,1.54-1.1h21.85c.41,0,.75.34.75.75s-.34.75-.75.75c-.06,0-.11.03-.12.08-1.18,3.54-5.02,16.16-5.02,29.43v5.81c0,13.26,3.85,25.88,5.03,29.43.01.04.06.08.12.08.41,0,.75.34.75.75s-.34.75-.75.75ZM250.71,287.38c-.06,0-.11.03-.12.08-.84,2.52-5.02,15.81-5.02,29.43v5.81c0,13.61,4.19,26.9,5.03,29.43.01.04.06.08.12.08h20.18c-1.33-4.09-4.97-16.48-4.97-29.5v-5.81c0-13.03,3.65-25.44,4.97-29.51h-20.18Z"></path></g><g><path class="cls-3" d="M180.21,352.95h-21.85c-.37,0-.71-.23-.83-.59-.96-2.9-5.07-16.02-5.07-29.66v-5.81c0-13.65,4.1-26.77,5.07-29.67.12-.36.46-.59.83-.59h21.85c-.37,0-.71.23-.83.59-.96,2.9-5.07,16.02-5.07,29.67v5.81c0,13.64,4.1,26.76,5.07,29.66.12.36.46.59.83.59Z"></path><path class="cls-2" d="M180.21,353.7h-21.85c-.7,0-1.32-.44-1.54-1.1-1.2-3.61-5.11-16.43-5.11-29.91v-5.81c0-13.49,3.91-26.3,5.1-29.91.23-.66.85-1.1,1.54-1.1h21.85c.41,0,.75.34.75.75s-.34.75-.75.75c-.06,0-.11.03-.12.08-.84,2.52-5.03,15.81-5.03,29.43v5.81c0,13.61,4.19,26.9,5.03,29.43.01.04.06.08.12.08.41,0,.75.34.75.75s-.34.75-.75.75ZM158.36,287.38c-.06,0-.11.03-.12.08-1.18,3.54-5.02,16.16-5.02,29.43v5.81c0,13.26,3.85,25.88,5.03,29.43.01.04.06.08.12.08h20.18c-1.33-4.08-4.97-16.47-4.97-29.5v-5.81c0-13.05,3.65-25.44,4.97-29.51h-20.18Z"></path></g><g><path class="cls-5" d="M414.82,322.28c0,13.3,4.53,26.02,4.53,26.02h-121.13s-4.53-12.73-4.53-26.02v-4.99c0-13.3,4.53-26.02,4.53-26.02h121.13s-4.53,12.73-4.53,26.02v4.99Z"></path><path class="cls-2" d="M419.35,349.05h-121.13c-.32,0-.6-.2-.71-.5-.04-.13-4.57-13-4.57-26.27v-4.99c0-13.27,4.53-26.15,4.57-26.27.11-.3.39-.5.71-.5h121.13c.24,0,.47.12.61.32.14.2.18.45.09.68-.04.13-4.48,12.76-4.48,25.77v4.99c0,13.01,4.44,25.65,4.48,25.77.08.23.05.48-.09.68-.14.2-.37.32-.61.32ZM298.76,347.55h119.55c-1.05-3.28-4.24-14.14-4.24-25.27v-4.99c0-11.14,3.19-21.99,4.24-25.27h-119.55c-.82,2.47-4.32,13.73-4.32,25.27v4.99c0,11.56,3.5,22.8,4.32,25.27Z"></path></g><path class="cls-2" d="M385.13,305.46h-71.44c-.41,0-.75-.34-.75-.75s.34-.75.75-.75h71.44c.41,0,.75.34.75.75s-.34.75-.75.75Z"></path><path class="cls-2" d="M414.97,313.84h-70c-.41,0-.75-.34-.75-.75s.34-.75.75-.75h70c.41,0,.75.34.75.75s-.34.75-.75.75Z"></path><path class="cls-2" d="M403.5,323.33h-102.59c-.41,0-.75-.34-.75-.75s.34-.75.75-.75h102.59c.41,0,.75.34.75.75s-.34.75-.75.75Z"></path><path class="cls-2" d="M411.23,333.66h-92.23c-.41,0-.75-.34-.75-.75s.34-.75.75-.75h92.23c.41,0,.75.34.75.75s-.34.75-.75.75Z"></path></g></g><g id="Character"><g><g><path class="cls-2" d="M205.09,249.01s-48.67-2.32-62.54,8.53c-13.87,10.85-7.2,28.54-7.2,28.54l78.34-.21,6.91-39.7-15.51,2.84Z"></path><path class="cls-5" d="M213.14,275.87c-.08-.02-.27-.06-.58-.11l-1.98-.31c-2.46-.38-4.85-.79-7.3-1.23-5.48-.99-14.04-2.77-23.76-5.62-.97-.29-1.93-.57-2.87-.86-3.53-1.06-6.86-2.05-10.01-2.81-4.2-1-7.81-1.54-10.71-1.61-3.66-.12-6.08.29-7.2.54-.59.1-1.05.23-1.42.34-.2.06-.37.11-.52.14-.37.08-.76-.14-.84-.52-.09-.38.15-.76.52-.84.13-.03.28-.07.45-.12.41-.12.92-.27,1.55-.37,2-.45,4.68-.66,7.51-.57,2.99.08,6.69.63,10.99,1.65,3.19.77,6.54,1.77,10.08,2.83.94.28,1.9.57,2.87.85,9.65,2.84,18.17,4.6,23.61,5.59,2.44.44,4.81.84,7.26,1.23l1.99.31c.78.13.97.16,1.15.43l-.58.4-.69-.13.69.13-.22.66Z"></path><path class="cls-5" d="M168.12,265.11c-.19,0-.38-.08-.52-.23-.07-.08-.12-.17-.15-.27-.11-.17-.46-.59-1.04-1.14-.57-.54-1.79-1.6-3.57-2.54-1.79-.93-3.35-1.34-4.12-1.49-.38-.08-.63-.45-.55-.83.08-.38.46-.62.83-.55.84.17,2.55.61,4.49,1.63,1.94,1.02,3.27,2.17,3.89,2.77,1.46,1.39,1.45,1.78,1.45,1.95,0,.19-.09.39-.23.52-.13.12-.3.18-.47.18Z"></path></g><path class="cls-2" d="M207.49,357.28l.32,20.56-9.38,20.82c-1.37,8.23,5.28,7.38,6.77,7.65h0c.83.15,1.68-.1,2.29-.69,3.86-3.77,18.1-20.65,17.94-22.51-.19-2.16.79-23.97.79-23.97l-18.73-1.85Z"></path><path class="cls-2" d="M220.6,246.17s-21.05,39.79-21.34,46.71c-.29,6.92,0,70.93,0,70.93h32.58c.87,0,5.73-28.83,4.74-35.47-.99-6.63-4.5-42.31-4.5-42.31h18.74s5.14-5.49,4.95-12.47c-.1-3.85-2.62-11.72-5.12-15.89-1.6-2.67-11.89-16.69-11.89-16.69l-18.17,5.19Z"></path><g><path class="cls-5" d="M212.38,262.42c-.12.03-.83-2.21-1.69-4.97-.87-2.76-1.57-5.01-1.45-5.05"></path><path class="cls-2" d="M212.29,262.91c-.38,0-.59-.67-2.05-5.32q-1.7-5.44-1.16-5.63l.16.44.46.04c.02.35.78,2.75,1.44,4.87.67,2.12,1.42,4.52,1.6,4.82l-.37.22.14.52c-.08.02-.15.04-.21.04Z"></path></g></g><g><g><path class="cls-5" d="M224.75,144.12c9.98,12.17.79,24.07,14.38,34.15,0,0-3.24,5.94-7.43,7.07l-3.01-2.46.21,2.68s-26.05,11.75-36.84,4.29l-1.36-3.23-2.03,2.26-6.36-5.71s4.57-2.7,4.35-8.23c-.23-5.46-5.98-26.63,9.5-35.8,9.89-5.86,17.11,1.07,17.11,1.07,0,0,6.32-2.38,11.48,3.91Z"></path><path class="cls-2" d="M192.62,189.39c9.68,6.4,32.07-2.79,35.54-4.27l-.17-2.18c-.02-.28.13-.55.37-.68.25-.13.55-.1.77.08l2.72,2.22c3.01-1.02,5.51-4.73,6.35-6.1-7.18-5.59-7.84-11.88-8.48-17.98-.54-5.18-1.11-10.54-5.51-15.91-4.79-5.83-10.63-3.72-10.69-3.7-.25.09-.54.04-.73-.15-.28-.27-6.97-6.48-16.27-.97-12.78,7.57-10.6,23.89-9.54,31.73.19,1.45.35,2.6.38,3.44.19,4.51-2.54,7.24-3.92,8.33l5.19,4.65,1.56-1.74c.16-.18.4-.26.64-.22.24.04.44.2.53.42l1.27,3.04Z"></path></g><path class="cls-3" d="M189.49,184.25s-12.1,7.73-33.91,40.04c9.38,3.05,17.12,9.12,17.12,9.12,5.63-6.95,22.77-20.48,22.77-20.48l-5.98-28.67h0Z"></path><path class="cls-3" d="M215.13,179.1s20.21-1.65,31.53,7.14c5.95,10.83,2.45,23.98,1.21,30.51-1.24,6.53-12.86,29.42-12.86,29.42,0,0-15.85,3.23-26.01,3.48-10.16.25-19.27-.82-19.27-.82,0,0,1.05-4.14,1.05-18.98,0-10.75-9.51-12.47-4.56-23.51,5.11-10.14,3.81-18.68,3.25-22.09,6.73-4.88,16.18-5.56,25.65-5.15h0Z"></path><path class="cls-2" d="M222.94,188.23c-5.56,5.96-17.03,8.89-23.59,12.1l-1.07-13.72c-.19-1.65-.07-3.19,1.43-3.91,4.75-2.29,15.49-3.12,21.67-.93,2.7.96,3.52,4.38,1.56,6.48Z"></path><g><path class="cls-5" d="M202.27,179.97l.49,11.34s1.21,2.18,8.79.48c7.1-1.59,7.85-6.04,7.84-6.06-.34-1.85-.75-7.06-1.06-11.44-.36-5.1-1.25-13.39-2.99-13.26-3.93,4.45-3.9-6.27-4.51-8.43-7.02,1.6-9.09,1.68-11.86,1.56-.25-.77-.65-4.84-.63-5.85-.13,1.16-1.07,4.97-1.28,5.89-.99.46-2.81.59-4.5.53-.29,2.7.41,17.18,1.7,22.44.99,4.03,7.99,2.8,7.99,2.8Z"></path><path class="cls-2" d="M206.53,193.14c-3.33,0-4.21-1.18-4.39-1.49-.05-.1-.08-.2-.09-.31l-.46-10.57c-1.99.21-7.08.35-8.01-3.42-1.35-5.49-2-20.02-1.72-22.69.04-.36.34-.63.7-.63h.02c1.63.05,3.04-.07,3.88-.35l.08-.34c.32-1.36.99-4.19,1.1-5.11.04-.37.38-.64.74-.62.37.02.66.34.66.71-.02.84.27,3.9.49,5.16,2.33.08,4.48-.05,11.14-1.57.37-.08.73.13.83.49.15.53.25,1.42.38,2.55.21,1.83.71,6.12,1.7,6.43.19.06.61-.13,1.23-.82.12-.14.29-.22.48-.24.24-.02.61.03.98.35,1.59,1.38,2.38,8.14,2.76,13.56.42,6.09.78,9.91,1.05,11.36.13.4-.46,1.59-.68,1.97-.96,1.67-3.08,3.87-7.7,4.9-2.17.49-3.86.67-5.17.67ZM203.45,191.04c.36.3,2.12,1.37,7.95.06,6.03-1.35,7.14-4.83,7.28-5.4-.29-1.72-.63-5.43-1.04-11.37-.59-8.43-1.57-11.69-2.13-12.45-.82.79-1.6,1.07-2.33.84-1.73-.54-2.22-3.63-2.68-7.61-.07-.62-.14-1.22-.21-1.68-6.39,1.43-8.49,1.54-11.34,1.42-.29-.01-.55-.2-.64-.48-.08-.24-.17-.72-.25-1.31-.05.21-.1.42-.14.6l-.16.69c-.05.21-.19.39-.39.48-1.13.52-2.98.6-4.14.61-.14,3.74.52,16.66,1.73,21.56.82,3.35,7.13,2.28,7.19,2.27.2-.04.4.02.56.14.16.13.25.32.26.52l.48,11.1Z"></path></g><g><path class="cls-2" d="M207.46,182.57c.68-1.01,1.18-2.21,1.51-3.17.2-.57-.37-1.1-.92-.86-1.14.49-3.01,1.05-5.74,1.17l.24,6.1s3.02-.44,4.91-3.24Z"></path><path class="cls-2" d="M202.1,186.34l-.27-7.08.46-.02c2.7-.12,4.52-.68,5.57-1.13.43-.18.9-.1,1.24.22.34.32.46.79.31,1.23-.31.9-.84,2.19-1.56,3.27h0c-1.98,2.94-5.1,3.42-5.23,3.44l-.51.07ZM202.8,180.15l.2,5.07c.9-.26,2.78-1,4.08-2.92h0c.67-1,1.16-2.21,1.46-3.06.04-.12-.03-.21-.06-.24-.04-.04-.12-.09-.24-.04-1.06.45-2.84,1.01-5.43,1.18Z"></path></g><g><path class="cls-5" d="M213.99,162.07c1.36-.28,1.36-4.37,2.27-4.72,1.78-.7,3.95.38,4.78,2.11.51,1.07.6,4.52-.81,6.84-.87,1.44-2.29,2.34-3.89,2.4"></path><path class="cls-2" d="M216.33,169.4c-.38,0-.69-.3-.7-.68-.01-.39.29-.71.68-.73,1.34-.05,2.54-.8,3.31-2.06,1.3-2.13,1.18-5.34.78-6.18-.7-1.47-2.52-2.29-3.89-1.75-.09.13-.31.98-.45,1.54-.37,1.46-.75,2.97-1.93,3.22-.38.08-.75-.16-.83-.54s.16-.75.54-.83c.33-.07.71-1.61.86-2.19.31-1.24.56-2.21,1.3-2.5,2.04-.8,4.64.32,5.66,2.46.65,1.37.64,5.06-.85,7.51-1.02,1.68-2.65,2.67-4.46,2.74h-.02Z"></path></g></g><g><g><rect class="cls-5" x="164.39" y="253.1" width="49.44" height="5.01"></rect><path class="cls-2" d="M213.83,258.82h-49.44c-.39,0-.7-.31-.7-.7v-5.01c0-.39.31-.7.7-.7h49.44c.39,0,.7.31.7.7v5.01c0,.39-.31.7-.7.7ZM165.09,257.41h48.04v-3.61h-48.04v3.61Z"></path></g><g><polygon class="cls-5" points="187.54 253.02 174.41 210.55 105.9 210.55 122.28 258.12 186.65 258.12 187.54 253.02"></polygon><path class="cls-2" d="M186.66,258.82h-64.37c-.3,0-.57-.19-.66-.47l-16.38-47.56c-.07-.21-.04-.45.09-.64s.34-.29.57-.29h68.51c.31,0,.58.2.67.49l13.13,42.46c.03.11.04.22.02.33l-.88,5.1c-.06.34-.35.58-.69.58ZM122.78,257.41h63.28l.75-4.35-12.92-41.81h-67.01l15.9,46.16Z"></path></g><g><polygon class="cls-5" points="186.82 258.12 172.12 210.55 103.61 210.55 120 258.12 186.82 258.12"></polygon><path class="cls-2" d="M186.82,258.82h-66.83c-.3,0-.57-.19-.66-.47l-16.38-47.56c-.07-.21-.04-.45.09-.64s.34-.29.57-.29h68.51c.31,0,.58.2.67.49l14.7,47.56c.07.21.03.45-.11.62s-.34.29-.57.29ZM120.5,257.41h65.37l-14.27-46.16h-67.01l15.9,46.16Z"></path></g></g><g><path class="cls-5" d="M216.04,238.71s-6.88-2.58-9.9-3.31c-2.22-.54-11.3,2.62-17.03,5.24-2.55,1.17-4.52,2.16-4.21,3.37.57,2.28,2.78,6.06,6.9,7.66,4.12,1.6,17.95-2.38,20.01-2.38s9.27,1.8,9.27,1.8l-5.04-12.39Z"></path><path class="cls-2" d="M194.61,252.77c-1.24,0-2.28-.13-3.06-.43-4.62-1.79-6.78-5.96-7.33-8.15-.47-1.86,2.11-3.04,4.6-4.18,4.74-2.17,14.74-5.96,17.48-5.29,3.03.74,9.7,3.23,9.98,3.34.18.07.33.21.4.39l5.04,12.39c.1.24.05.52-.12.72-.17.2-.45.29-.7.22-1.98-.5-7.48-1.78-9.1-1.78-.54,0-2.24.36-4.22.78-4.96,1.05-9.68,1.98-12.98,1.98ZM205.47,236.03c-2.61,0-10.53,2.71-16.07,5.25-1.4.64-4,1.84-3.82,2.56.45,1.79,2.38,5.59,6.47,7.18,2.7,1.05,10.55-.62,15.24-1.61,2.44-.52,3.86-.81,4.51-.81,1.58,0,5.89.97,8.1,1.5l-4.41-10.84c-1.33-.49-6.93-2.55-9.53-3.18-.13-.03-.3-.05-.5-.05Z"></path></g><path class="cls-3" d="M246.78,186.42s31.34,47.41,21.38,59.75c-9.95,12.34-48.34,10.68-48.34,10.68l-4.79-19.9s17.83-.23,32.02-3.33c0,0-13.97-13.16-16.78-24.02-2.81-10.85,5-25.3,16.51-23.18h0Z"></path><path class="cls-5" d="M199.14,307.62h0c-.39,0-.7-.32-.7-.7.02-7.75.06-12.48.12-14.06.21-5.17,6.63-18.03,13.19-30.76.18-.34.6-.48.95-.3.34.18.48.6.3.95-4.79,9.3-12.82,24.88-13.04,30.17-.06,1.56-.11,6.28-.12,14.01,0,.39-.32.7-.7.7Z"></path><path class="cls-5" d="M232.08,286.74c-.11,0-.22-.02-.32-.08-.34-.18-.48-.6-.3-.95l3.87-7.48c.18-.34.6-.48.95-.3.34.18.48.6.3.95l-3.87,7.48c-.12.24-.37.38-.62.38Z"></path><path class="cls-2" d="M190.79,230.56c-.39,0-.7-.31-.7-.7,0-4.39-1.64-7.19-3.23-9.89-2.19-3.72-4.25-7.24-1.26-13.91,1.18-2.34,2.08-4.73,2.7-7.14.1-.38.48-.6.86-.5.38.1.6.48.5.86-.65,2.51-1.59,4.99-2.8,7.39-2.68,5.97-.88,9.04,1.21,12.59,1.61,2.73,3.43,5.83,3.43,10.61,0,.39-.31.7-.7.7Z"></path><path class="cls-2" d="M224.19,257.62c-2.68,0-4.34-.07-4.4-.07-.31-.01-.58-.23-.65-.54l-4.79-19.9c-.05-.21,0-.43.13-.6.13-.17.33-.27.54-.27.17,0,17.02-.25,30.8-3.09-1.96-2.61-7.89-10.61-13.4-19.21-.21-.33-.11-.76.21-.97s.76-.11.97.21c6.65,10.4,13.92,19.91,14,20,.15.19.18.44.1.67-.08.23-.27.39-.51.44-12.31,2.69-27.5,3.23-31.28,3.33l4.46,18.53c3.4.1,22.41.45,35.82-3.79.37-.12.76.09.88.46.12.37-.09.76-.46.88-10.86,3.43-25.28,3.91-32.43,3.91Z"></path><g><path class="cls-5" d="M198.97,162.22s-2.02,6.08-1.34,7.22c.69,1.14,2.97.91,2.97.91"></path><path class="cls-2" d="M200.12,171.08c-.85,0-2.42-.16-3.09-1.28-.77-1.28.63-5.88,1.27-7.81.12-.37.52-.57.89-.45.37.12.57.52.45.89-1.01,3.05-1.65,6.09-1.4,6.65.34.56,1.69.62,2.3.57.38-.04.73.25.77.63.04.39-.24.73-.63.77-.07,0-.27.02-.56.02Z"></path></g><ellipse class="cls-2" cx="204.95" cy="161" rx="1" ry="1.56"></ellipse><ellipse class="cls-2" cx="195.38" cy="161.69" rx="1" ry="1.56"></ellipse><g><path class="cls-5" d="M197.98,174.48s5.32.97,8.92-2.46"></path><path class="cls-2" d="M199.75,175.31c-1.09,0-1.82-.13-1.9-.14-.38-.07-.63-.43-.56-.82.07-.38.43-.63.82-.57.05.01,5.02.86,8.31-2.28.28-.27.73-.26.99.02.27.28.26.73-.02.99-2.47,2.35-5.64,2.78-7.63,2.78Z"></path></g><path class="cls-2" d="M186.24,246.47c-.28,0-.54-.16-.65-.43-.15-.36.02-.77.38-.92l11.44-4.73c.36-.14.77.02.92.38.15.36-.02.77-.38.92l-11.44,4.73c-.09.04-.18.05-.27.05Z"></path><path class="cls-2" d="M188.07,249.52c-.27,0-.53-.16-.65-.43-.15-.36.01-.77.37-.92l11.44-4.88c.35-.15.77.01.92.37.15.36-.01.77-.37.92l-11.44,4.88c-.09.04-.18.06-.28.06Z"></path><path class="cls-2" d="M190.96,252.11c-.28,0-.55-.17-.66-.45-.14-.36.04-.77.41-.91l9.61-3.66c.36-.14.77.04.91.41.14.36-.04.77-.41.91l-9.61,3.66c-.08.03-.17.05-.25.05Z"></path><path class="cls-5" d="M219.62,381.12c-.18,0-.38-.03-.59-.1-1.08-.36-1.65-1.64-2.24-2.98-1.03-2.32-1.85-3.84-3.87-3.62-3.75.39-4.39,3.42-4.42,3.55-.07.38-.44.62-.82.56-.38-.07-.63-.44-.56-.82.27-1.44,1.8-4.28,5.65-4.69,3.19-.33,4.41,2.43,5.3,4.45.45,1.01.91,2.05,1.4,2.22.29.1.57-.26,1.2-1.34.85-1.48,2.03-3.5,4.75-3.5.39,0,.7.31.7.7s-.31.7-.7.7c-1.92,0-2.74,1.42-3.54,2.8-.57.98-1.2,2.07-2.27,2.07Z"></path></g><g id="Plant"><g><path class="cls-5" d="M90.42,391.1s9.89-14.54,12.42-29.29c0,0-20.37,4.07-21.33,21.53-1.2,21.54,8.92,7.76,8.92,7.76h0Z"></path><path class="cls-2" d="M84.65,396.09c-.31,0-.62-.05-.92-.16-2.37-.85-3.31-4.98-2.88-12.63.98-17.75,21.65-22.09,21.86-22.13.22-.04.43.02.58.17.16.15.22.37.19.58-2.52,14.71-12.42,29.4-12.52,29.54,0,0,0,0,0,.02-.37.51-3.47,4.61-6.31,4.61h0ZM102.01,362.69c-3.98,1.08-19.04,6.1-19.85,20.68-.51,9.04,1.05,10.98,2.01,11.33,1.81.64,4.79-2.73,5.71-3.98.29-.43,9.43-14.09,12.13-28.02h0ZM90.43,391.1h0,0Z"></path></g><g><path class="cls-5" d="M82.08,391.88s6.59-9.7,6.59-23.46-6.59-23.08-6.59-23.08c0,0-10.28,10.86-13.18,26.57-2.91,15.71,3.14,27.34,8.16,23.66l5.03-3.69h0Z"></path><path class="cls-2" d="M75.12,396.9c-.71,0-1.42-.22-2.12-.66-4.09-2.57-6.99-12.43-4.76-24.47,2.91-15.72,13.25-26.79,13.35-26.9.13-.14.33-.22.52-.21.2,0,.37.11.49.27.27.38,6.71,9.63,6.71,23.46s-6.43,23.44-6.7,23.84c-.04.07-.09.11-.15.16l-5.03,3.69c-.74.54-1.53.81-2.32.81h0ZM82,346.41c-2.16,2.52-10.01,12.38-12.46,25.61-2.1,11.35.52,20.83,4.17,23.12,1.01.64,2,.6,2.97-.1l4.93-3.61c.66-1.01,6.42-10.31,6.42-23.01,0-11.29-4.55-19.61-6.02-21.99h0ZM82.08,391.88h0,0Z"></path></g><g><path class="cls-5" d="M73.9,395.56s2.91-19.2-2.91-28.9c-5.81-9.7-16.29-13.96-16.29-13.96,0,0-6.21,14.35,0,25.22,6.21,10.86,19.2,17.65,19.2,17.65h0Z"></path><path class="cls-2" d="M73.9,396.22c-.1,0-.21-.03-.3-.07-.53-.28-13.24-7-19.47-17.9-6.29-11.02-.29-25.2-.03-25.8.14-.33.52-.49.85-.35.44.18,10.74,4.46,16.61,14.23,5.87,9.78,3.12,28.54,3,29.34-.03.21-.16.39-.35.49-.09.05-.2.07-.3.07h-.02ZM55.06,353.58c-1.07,2.84-5.04,14.81.22,24.01,5.14,9,15.17,15.23,18.11,16.93.48-3.95,1.96-19.34-2.95-27.52-4.85-8.08-13.08-12.35-15.37-13.43h0Z"></path></g><g><path class="cls-2" d="M60.88,387.61h32.34l-3.35,22.67c-.34,2.28-2.3,3.98-4.62,3.98h-16.42c-2.31,0-4.27-1.69-4.62-3.98l-3.35-22.67h.02Z"></path><path class="cls-2" d="M85.26,414.91h-16.42c-2.61,0-4.88-1.95-5.26-4.54l-3.35-22.67c-.03-.19.03-.38.15-.52.12-.14.31-.22.5-.22h32.34c.19,0,.37.08.5.22s.18.34.15.52l-3.35,22.67c-.38,2.58-2.64,4.54-5.26,4.54h.02ZM61.64,388.27l3.24,21.92c.29,1.95,1.99,3.42,3.96,3.42h16.42c1.98,0,3.68-1.47,3.96-3.42l3.24-21.92h-30.82Z"></path></g></g></svg>